<svg width="1771" height="367" viewBox="0 0 1771 367" fill="none" xmlns="http://www.w3.org/2000/svg">
<path d="M450 260V116H536.7V140.1H474.1V176H524.7V200H474.1V260H450ZM554.688 260V152H575.988V178.3L573.388 174.9C574.721 171.3 576.488 168.033 578.688 165.1C580.954 162.1 583.654 159.633 586.788 157.7C589.454 155.9 592.388 154.5 595.588 153.5C598.854 152.433 602.188 151.8 605.588 151.6C608.988 151.333 612.288 151.467 615.488 152V174.5C612.288 173.567 608.588 173.267 604.388 173.6C600.254 173.933 596.521 175.1 593.188 177.1C589.854 178.9 587.121 181.2 584.988 184C582.921 186.8 581.388 190 580.388 193.6C579.388 197.133 578.888 200.967 578.888 205.1V260H554.688ZM681.717 263C670.784 263 661.184 260.633 652.917 255.9C644.651 251.167 638.184 244.6 633.517 236.2C628.917 227.8 626.617 218.133 626.617 207.2C626.617 195.4 628.884 185.167 633.417 176.5C637.951 167.767 644.251 161 652.317 156.2C660.384 151.4 669.717 149 680.317 149C691.517 149 701.017 151.633 708.817 156.9C716.684 162.1 722.517 169.467 726.317 179C730.117 188.533 731.551 199.767 730.617 212.7H706.717V203.9C706.651 192.167 704.584 183.6 700.517 178.2C696.451 172.8 690.051 170.1 681.317 170.1C671.451 170.1 664.117 173.167 659.317 179.3C654.517 185.367 652.117 194.267 652.117 206C652.117 216.933 654.517 225.4 659.317 231.4C664.117 237.4 671.117 240.4 680.317 240.4C686.251 240.4 691.351 239.1 695.617 236.5C699.951 233.833 703.284 230 705.617 225L729.417 232.2C725.284 241.933 718.884 249.5 710.217 254.9C701.617 260.3 692.117 263 681.717 263ZM644.517 212.7V194.5H718.817V212.7H644.517ZM754.93 135.6V113.5H779.03V135.6H754.93ZM754.93 260V152H779.03V260H754.93ZM854.384 311C848.384 311 842.618 310.067 837.084 308.2C831.618 306.333 826.684 303.633 822.284 300.1C817.884 296.633 814.284 292.433 811.484 287.5L833.684 276.5C835.751 280.433 838.651 283.333 842.384 285.2C846.184 287.133 850.218 288.1 854.484 288.1C859.484 288.1 863.951 287.2 867.884 285.4C871.818 283.667 874.851 281.067 876.984 277.6C879.184 274.2 880.218 269.933 880.084 264.8V234.1H883.084V152H904.184V265.2C904.184 267.933 904.051 270.533 903.784 273C903.584 275.533 903.218 278 902.684 280.4C901.084 287.4 898.018 293.133 893.484 297.6C888.951 302.133 883.318 305.5 876.584 307.7C869.918 309.9 862.518 311 854.384 311ZM852.284 263C842.351 263 833.684 260.5 826.284 255.5C818.884 250.5 813.151 243.7 809.084 235.1C805.018 226.5 802.984 216.8 802.984 206C802.984 195.067 805.018 185.333 809.084 176.8C813.218 168.2 819.051 161.433 826.584 156.5C834.118 151.5 842.984 149 853.184 149C863.451 149 872.051 151.5 878.984 156.5C885.984 161.433 891.284 168.2 894.884 176.8C898.484 185.4 900.284 195.133 900.284 206C900.284 216.733 898.484 226.433 894.884 235.1C891.284 243.7 885.918 250.5 878.784 255.5C871.651 260.5 862.818 263 852.284 263ZM855.984 241.4C862.451 241.4 867.651 239.933 871.584 237C875.584 234 878.484 229.833 880.284 224.5C882.151 219.167 883.084 213 883.084 206C883.084 198.933 882.151 192.767 880.284 187.5C878.484 182.167 875.651 178.033 871.784 175.1C867.918 172.1 862.918 170.6 856.784 170.6C850.318 170.6 844.984 172.2 840.784 175.4C836.584 178.533 833.484 182.8 831.484 188.2C829.484 193.533 828.484 199.467 828.484 206C828.484 212.6 829.451 218.6 831.384 224C833.384 229.333 836.418 233.567 840.484 236.7C844.551 239.833 849.718 241.4 855.984 241.4ZM1006.93 260V208C1006.93 204.6 1006.69 200.833 1006.23 196.7C1005.76 192.567 1004.66 188.6 1002.93 184.8C1001.26 180.933 998.727 177.767 995.327 175.3C991.993 172.833 987.46 171.6 981.727 171.6C978.66 171.6 975.627 172.1 972.627 173.1C969.627 174.1 966.893 175.833 964.427 178.3C962.027 180.7 960.093 184.033 958.627 188.3C957.16 192.5 956.427 197.9 956.427 204.5L942.127 198.4C942.127 189.2 943.893 180.867 947.427 173.4C951.027 165.933 956.293 160 963.227 155.6C970.16 151.133 978.693 148.9 988.827 148.9C996.827 148.9 1003.43 150.233 1008.63 152.9C1013.83 155.567 1017.96 158.967 1021.03 163.1C1024.09 167.233 1026.36 171.633 1027.83 176.3C1029.29 180.967 1030.23 185.4 1030.63 189.6C1031.09 193.733 1031.33 197.1 1031.33 199.7V260H1006.93ZM932.027 260V116H953.527V191.8H956.427V260H932.027ZM1120.72 260C1113.59 261.333 1106.59 261.9 1099.72 261.7C1092.92 261.567 1086.82 260.333 1081.42 258C1076.02 255.6 1071.92 251.833 1069.12 246.7C1066.66 242.033 1065.36 237.267 1065.22 232.4C1065.09 227.533 1065.02 222.033 1065.02 215.9V122H1089.02V214.5C1089.02 218.833 1089.06 222.633 1089.12 225.9C1089.26 229.167 1089.96 231.833 1091.22 233.9C1093.62 237.9 1097.46 240.133 1102.72 240.6C1107.99 241.067 1113.99 240.8 1120.72 239.8V260ZM1045.42 170.9V152H1120.72V170.9H1045.42ZM1183.98 260V116H1239.58C1240.98 116 1242.55 116.067 1244.28 116.2C1246.08 116.267 1247.88 116.467 1249.68 116.8C1257.22 117.933 1263.58 120.567 1268.78 124.7C1274.05 128.767 1278.02 133.9 1280.68 140.1C1283.42 146.3 1284.78 153.167 1284.78 160.7C1284.78 171.567 1281.92 181 1276.18 189C1270.45 197 1262.25 202.033 1251.58 204.1L1246.48 205.3H1198.68V260H1183.98ZM1271.18 260L1242.78 201.4L1256.88 196L1288.08 260H1271.18ZM1198.68 191.3H1239.18C1240.38 191.3 1241.78 191.233 1243.38 191.1C1244.98 190.967 1246.55 190.733 1248.08 190.4C1253.02 189.333 1257.05 187.3 1260.18 184.3C1263.38 181.3 1265.75 177.733 1267.28 173.6C1268.88 169.467 1269.68 165.167 1269.68 160.7C1269.68 156.233 1268.88 151.933 1267.28 147.8C1265.75 143.6 1263.38 140 1260.18 137C1257.05 134 1253.02 131.967 1248.08 130.9C1246.55 130.567 1244.98 130.367 1243.38 130.3C1241.78 130.167 1240.38 130.1 1239.18 130.1H1198.68V191.3ZM1341.06 263C1332.92 263 1326.09 261.533 1320.56 258.6C1315.09 255.667 1310.99 251.767 1308.26 246.9C1305.52 242.033 1304.16 236.733 1304.16 231C1304.16 225.133 1305.32 220.133 1307.66 216C1310.06 211.8 1313.29 208.367 1317.36 205.7C1321.49 203.033 1326.26 201 1331.66 199.6C1337.12 198.267 1343.16 197.1 1349.76 196.1C1356.42 195.033 1362.92 194.133 1369.26 193.4C1375.66 192.6 1381.26 191.833 1386.06 191.1L1380.86 194.3C1381.06 183.633 1378.99 175.733 1374.66 170.6C1370.32 165.467 1362.79 162.9 1352.06 162.9C1344.66 162.9 1338.39 164.567 1333.26 167.9C1328.19 171.233 1324.62 176.5 1322.56 183.7L1308.26 179.5C1310.72 169.833 1315.69 162.333 1323.16 157C1330.62 151.667 1340.32 149 1352.26 149C1362.12 149 1370.49 150.867 1377.36 154.6C1384.29 158.267 1389.19 163.6 1392.06 170.6C1393.39 173.733 1394.26 177.233 1394.66 181.1C1395.06 184.967 1395.26 188.9 1395.26 192.9V260H1382.16V232.9L1385.96 234.5C1382.29 243.767 1376.59 250.833 1368.86 255.7C1361.12 260.567 1351.86 263 1341.06 263ZM1342.76 250.3C1349.62 250.3 1355.62 249.067 1360.76 246.6C1365.89 244.133 1370.02 240.767 1373.16 236.5C1376.29 232.167 1378.32 227.3 1379.26 221.9C1380.06 218.433 1380.49 214.633 1380.56 210.5C1380.62 206.3 1380.66 203.167 1380.66 201.1L1386.26 204C1381.26 204.667 1375.82 205.333 1369.96 206C1364.16 206.667 1358.42 207.433 1352.76 208.3C1347.16 209.167 1342.09 210.2 1337.56 211.4C1334.49 212.267 1331.52 213.5 1328.66 215.1C1325.79 216.633 1323.42 218.7 1321.56 221.3C1319.76 223.9 1318.86 227.133 1318.86 231C1318.86 234.133 1319.62 237.167 1321.16 240.1C1322.76 243.033 1325.29 245.467 1328.76 247.4C1332.29 249.333 1336.96 250.3 1342.76 250.3ZM1463.19 263C1453.12 263 1444.52 260.5 1437.39 255.5C1430.26 250.433 1424.79 243.6 1420.99 235C1417.19 226.4 1415.29 216.7 1415.29 205.9C1415.29 195.167 1417.16 185.5 1420.89 176.9C1424.69 168.3 1430.12 161.5 1437.19 156.5C1444.26 151.5 1452.72 149 1462.59 149C1472.72 149 1481.26 151.467 1488.19 156.4C1495.12 161.333 1500.36 168.1 1503.89 176.7C1507.49 185.233 1509.29 194.967 1509.29 205.9C1509.29 216.633 1507.52 226.333 1503.99 235C1500.46 243.6 1495.26 250.433 1488.39 255.5C1481.52 260.5 1473.12 263 1463.19 263ZM1464.69 249.3C1472.36 249.3 1478.69 247.433 1483.69 243.7C1488.69 239.967 1492.42 234.833 1494.89 228.3C1497.36 221.7 1498.59 214.233 1498.59 205.9C1498.59 197.433 1497.36 189.967 1494.89 183.5C1492.42 176.967 1488.69 171.867 1483.69 168.2C1478.76 164.533 1472.52 162.7 1464.99 162.7C1457.26 162.7 1450.86 164.6 1445.79 168.4C1440.72 172.2 1436.96 177.367 1434.49 183.9C1432.09 190.433 1430.89 197.767 1430.89 205.9C1430.89 214.1 1432.12 221.5 1434.59 228.1C1437.12 234.633 1440.89 239.8 1445.89 243.6C1450.89 247.4 1457.16 249.3 1464.69 249.3ZM1498.59 260V178.7H1496.99V116H1511.79V260H1498.59ZM1570.74 263C1562.61 263 1555.78 261.533 1550.24 258.6C1544.78 255.667 1540.68 251.767 1537.94 246.9C1535.21 242.033 1533.84 236.733 1533.84 231C1533.84 225.133 1535.01 220.133 1537.34 216C1539.74 211.8 1542.98 208.367 1547.04 205.7C1551.18 203.033 1555.94 201 1561.34 199.6C1566.81 198.267 1572.84 197.1 1579.44 196.1C1586.11 195.033 1592.61 194.133 1598.94 193.4C1605.34 192.6 1610.94 191.833 1615.74 191.1L1610.54 194.3C1610.74 183.633 1608.68 175.733 1604.34 170.6C1600.01 165.467 1592.48 162.9 1581.74 162.9C1574.34 162.9 1568.08 164.567 1562.94 167.9C1557.88 171.233 1554.31 176.5 1552.24 183.7L1537.94 179.5C1540.41 169.833 1545.38 162.333 1552.84 157C1560.31 151.667 1570.01 149 1581.94 149C1591.81 149 1600.18 150.867 1607.04 154.6C1613.98 158.267 1618.88 163.6 1621.74 170.6C1623.08 173.733 1623.94 177.233 1624.34 181.1C1624.74 184.967 1624.94 188.9 1624.94 192.9V260H1611.84V232.9L1615.64 234.5C1611.98 243.767 1606.28 250.833 1598.54 255.7C1590.81 260.567 1581.54 263 1570.74 263ZM1572.44 250.3C1579.31 250.3 1585.31 249.067 1590.44 246.6C1595.58 244.133 1599.71 240.767 1602.84 236.5C1605.98 232.167 1608.01 227.3 1608.94 221.9C1609.74 218.433 1610.18 214.633 1610.24 210.5C1610.31 206.3 1610.34 203.167 1610.34 201.1L1615.94 204C1610.94 204.667 1605.51 205.333 1599.64 206C1593.84 206.667 1588.11 207.433 1582.44 208.3C1576.84 209.167 1571.78 210.2 1567.24 211.4C1564.18 212.267 1561.21 213.5 1558.34 215.1C1555.48 216.633 1553.11 218.7 1551.24 221.3C1549.44 223.9 1548.54 227.133 1548.54 231C1548.54 234.133 1549.31 237.167 1550.84 240.1C1552.44 243.033 1554.98 245.467 1558.44 247.4C1561.98 249.333 1566.64 250.3 1572.44 250.3ZM1650.98 260V152H1664.18V178L1661.58 174.6C1662.78 171.4 1664.34 168.467 1666.28 165.8C1668.21 163.067 1670.31 160.833 1672.58 159.1C1675.38 156.633 1678.64 154.767 1682.38 153.5C1686.11 152.167 1689.88 151.4 1693.68 151.2C1697.48 150.933 1700.94 151.2 1704.08 152V165.8C1700.14 164.8 1695.84 164.567 1691.18 165.1C1686.51 165.633 1682.21 167.5 1678.28 170.7C1674.68 173.5 1671.98 176.867 1670.18 180.8C1668.38 184.667 1667.18 188.8 1666.58 193.2C1665.98 197.533 1665.68 201.833 1665.68 206.1V260H1650.98Z" fill="white"/>
<path d="M173.488 148H197.146L235 333.896L186.5 341L138 333.896L173.488 148Z" fill="white"/>
<circle cx="183.5" cy="183.5" r="159.5" stroke="white" stroke-width="4"/>
<circle cx="183.5" cy="183.5" r="123.5" stroke="white" stroke-width="4"/>
<circle cx="185" cy="185" r="87" stroke="white" stroke-width="4"/>
<path d="M98 86C103.604 86 108 90.3327 108 95.5C108 100.667 103.604 105 98 105C92.3961 105 88 100.667 88 95.5C88 90.3327 92.3961 86 98 86Z" fill="white" stroke="white" stroke-width="4"/>
<circle cx="321" cy="262" r="10" fill="white" stroke="white" stroke-width="4"/>
<path d="M57.5 264C62.6673 264 67 268.396 67 274C67 279.604 62.6673 284 57.5 284C52.3327 284 48 279.604 48 274C48 268.396 52.3327 264 57.5 264Z" fill="white" stroke="white" stroke-width="4"/>
<circle cx="262" cy="160" r="10" fill="white" stroke="white" stroke-width="4"/>
<g filter="url(#filter0_d_205_47)">
<path d="M178.969 74.713C180.764 70.8648 186.236 70.8648 188.031 74.713L273.667 258.282C275.788 262.828 270.641 267.317 266.426 264.597L186.211 212.846C184.56 211.781 182.44 211.781 180.789 212.846L100.574 264.597C96.3593 267.317 91.2119 262.828 93.3326 258.282L178.969 74.713Z" fill="white"/>
</g>
<defs>
<filter id="filter0_d_205_47" x="88.8392" y="71.8269" width="189.322" height="201.596" filterUnits="userSpaceOnUse" color-interpolation-filters="sRGB">
<feFlood flood-opacity="0" result="BackgroundImageFix"/>
<feColorMatrix in="SourceAlpha" type="matrix" values="0 0 0 0 0 0 0 0 0 0 0 0 0 0 0 0 0 0 127 0" result="hardAlpha"/>
<feOffset dy="4"/>
<feGaussianBlur stdDeviation="2"/>
<feComposite in2="hardAlpha" operator="out"/>
<feColorMatrix type="matrix" values="0 0 0 0 0 0 0 0 0 0 0 0 0 0 0 0 0 0 0.25 0"/>
<feBlend mode="normal" in2="BackgroundImageFix" result="effect1_dropShadow_205_47"/>
<feBlend mode="normal" in="SourceGraphic" in2="effect1_dropShadow_205_47" result="shape"/>
</filter>
</defs>
</svg>
