<svg xmlns="http://www.w3.org/2000/svg" viewBox="0 0 1440 720" width="1440" height="720" role="img" aria-label="abstract world map">
  <defs>
    <linearGradient id="g" x1="0" x2="1" y1="0" y2="1">
      <stop offset="0%" stop-color="#f8fafc"/>
      <stop offset="100%" stop-color="#eef2f7"/>
    </linearGradient>
  </defs>
  <rect width="100%" height="100%" fill="url(#g)"/>
  <g fill="none" stroke="#cfd8e3" stroke-width="1">
    <path d="M86 210l24-10 18 10 20-6 16 10 12-8 18 8 8-10 22 8 18-12 18 10 22-10 10 10 18-12 14 12 18-12 10 8 20-8 10 10 18-10 22 10 10-10" opacity=".6"/>
    <path d="M420 250l20-8 16 8 18-6 20 6 12-8 16 8 10-10 18 8 18-10 20 10 20-10 10 10 18-12 12 12 18-10 12 8 20-8 8 8 18-8 20 8 12-8" opacity=".6"/>
    <path d="M820 310l20-10 18 10 20-8 18 8 12-8 16 8 10-10 20 8 16-10 22 10 20-10 10 10 18-12 12 12 18-10 12 8 20-8 10 8 18-8 20 8 12-8" opacity=".6"/>
    <path d="M220 420l20-10 18 10 20-8 18 8 12-8 16 8 10-10 20 8 16-10 22 10 20-10 10 10 18-12 12 12 18-10 12 8 20-8 10 8 18-8 20 8 12-8" opacity=".6"/>
    <path d="M640 470l18-8 14 8 18-6 18 6 12-8 12 8 10-10 18 8 16-10 18 10 18-10 10 10 16-12 12 12 16-10 12 8 18-8 10 8 16-8 18 8 12-8" opacity=".6"/>
  </g>
</svg>

